<?xml version="1.0" encoding="UTF-8" standalone="no"?>
<svg xmlns="http://www.w3.org/2000/svg" width="1130" height="537" viewBox="0 0 1130 537" role="img" aria-label="Personal Virtual Support logo">
  <title>Personal Virtual Support</title>
  <g><path d="M 723 29 L 692 30 L 682 33 L 665 43 L 649 61 L 512 280 L 536 327 L 538 327 Z M 479 43 L 455 33 L 433 29 L 254 29 L 254 333 L 301 333 L 301 240 L 304 230 L 315 219 L 323 216 L 431 216 L 450 213 L 478 202 L 490 194 L 506 178 L 518 157 L 523 141 L 523 103 L 517 84 L 508 69 L 492 52 Z M 302 75 L 310 73 L 435 74 L 443 76 L 457 83 L 471 97 L 478 116 L 476 137 L 469 150 L 458 161 L 445 168 L 434 171 L 321 171 L 302 174 Z" fill="#082b67" fill-rule="evenodd"/><path d="M 426 236 L 485 326 L 495 332 L 510 336 L 527 334 L 537 329 L 511 279 L 477 225 L 453 233 Z M 687 121 L 659 165 L 666 176 L 676 185 L 695 196 L 719 202 L 814 202 L 823 204 L 836 211 L 847 223 L 853 239 L 853 250 L 850 261 L 843 272 L 831 282 L 818 287 L 675 287 L 650 333 L 816 333 L 847 325 L 868 312 L 882 297 L 890 284 L 898 257 L 898 232 L 895 218 L 886 198 L 878 187 L 856 169 L 831 159 L 820 157 L 726 157 L 714 154 L 697 142 L 691 133 Z M 716 74 L 856 74 L 883 29 L 744 29 Z" fill="#079996" fill-rule="evenodd"/></g>
  <path d="M98.90414809878806 421.0885843988172Q98.90414809878806 427.007538211653 96.20580150764233 431.66436216733996Q93.50745491649661 436.32118612302696 88.4806963475074 438.86720669693057Q83.45393777851818 441.4132272708342 76.53398442380575 441.4132272708342H61.30138269959602V463.0H48.46247553204781V401.6778976302528H76.01172379326141Q87.02271875390446 401.6778976302528 92.96343342634626 406.7481779184541Q98.90414809878806 411.8184582066553 98.90414809878806 421.0885843988172ZM85.97819749281578 421.30619299487734Q85.97819749281578 411.6443713298072 74.57550705926451 411.6443713298072H61.30138269959602V431.5337970097039H74.92368081296073Q80.23333055682812 431.5337970097039 83.10576402482195 428.9007329973762Q85.97819749281578 426.26766898504854 85.97819749281578 421.30619299487734Z M127.45439590187831 463.8704343842406Q116.83509641414352 463.8704343842406 111.13375119736787 457.58154595810254Q105.43240598059224 451.2926575319645 105.43240598059224 439.2371413102328Q105.43240598059224 427.57332056140933 111.22079463579193 421.30619299487734Q117.00918329099163 415.03906542834534 127.62848277872642 415.03906542834534Q137.7690433551289 415.03906542834534 143.1222148182083 421.76317104660365Q148.47538628128774 428.48727666486195 148.47538628128774 441.4567489900462V441.80492274374245H118.27131314814044Q118.27131314814044 448.68135437924286 120.81733372204405 452.1848527758111Q123.36335429594769 455.6883511723793 128.0636999708467 455.6883511723793Q134.54843613343883 455.6883511723793 136.24578318270792 450.0740493940277L147.7790387738953 451.07504893590436Q142.77404106451212 463.8704343842406 127.45439590187831 463.8704343842406ZM127.45439590187831 422.74240972887424Q123.14574569988756 422.74240972887424 120.81733372204407 425.7454083545042Q118.48892174420058 428.7484069801341 118.3583565865645 434.14510016242554H136.63747865561618Q136.28930490191996 428.4437549456499 133.89561034525843 425.5930823372621Q131.5019157885969 422.74240972887424 127.45439590187831 422.74240972887424Z M157.74551247344968 463.0V426.964016492441Q157.74551247344968 423.0905834825705 157.63670817541959 420.50104118945484Q157.52790387738952 417.9114988963392 157.39733871975344 415.9094998125859H169.0611594685769Q169.191724626213 416.6928907584024 169.40933322227312 420.67512806630293Q169.62694181833325 424.6573653742035 169.62694181833325 425.96301695056434H169.80102869518137Q171.58541918287452 421.0015409603932 172.9781141976594 418.97778101703386Q174.3708092124443 416.95402107367454 176.28576485777353 415.9747823914039Q178.20072050310273 414.9955437091333 181.0731539710966 414.9955437091333Q183.42332680854608 414.9955437091333 184.859543542543 415.64836949731375V425.87597351214026Q181.9000666361251 425.22314772395987 179.63693723709966 425.22314772395987Q175.06715671983673 425.22314772395987 172.5211361459331 428.9224938569822Q169.9751155720295 432.62183999000456 169.9751155720295 439.88996709841325V463.0Z M232.1241306068052 449.2471367289992Q232.1241306068052 456.08004664528755 226.53158968805963 459.9752405147641Q220.93904876931407 463.8704343842406 211.05961850818375 463.8704343842406Q201.35427512390154 463.8704343842406 196.19695139727625 460.80215317979264Q191.03962767065096 457.73387197534464 189.34228062138186 451.2491358127525L200.09214526675274 449.63883220190746Q201.00610137020533 452.9900045812336 203.24746990962475 454.3826995960185Q205.48883844904418 455.7753946108034 211.05961850818375 455.7753946108034Q216.19518137520302 455.7753946108034 218.5453542126525 454.46974303444256Q220.89552705010203 453.1640914580817 220.89552705010203 450.37870142851193Q220.89552705010203 448.1155720294865 219.00233226437882 446.7881595935196Q217.1091374786556 445.46074715755276 212.58287868060472 444.5467910541002Q202.2247095081421 442.5012702511349 198.61240681354377 440.7386406230478Q195.00010411894547 438.97601099496063 193.10690933322226 436.1688601057848Q191.21371454749905 433.36170921660903 191.21371454749905 429.27066761067846Q191.21371454749905 422.5248011328141 196.41455999333638 418.76017242097373Q201.6154054391737 414.9955437091333 211.1466619466078 414.9955437091333Q219.54635375452918 414.9955437091333 224.66015576194246 418.2596726500354Q229.77395776935572 421.52380159093747 231.03608762650452 427.70388571904545L220.1991795427096 428.83545041855814Q219.67691891216526 425.96301695056434 217.63139810919995 424.5485610761734Q215.58587730623464 423.1341052017825 211.1466619466078 423.1341052017825Q206.79449002540503 423.1341052017825 204.61840406480363 424.2439090416892Q202.44231810420223 425.3537128815959 202.44231810420223 427.9650160343176Q202.44231810420223 430.0105368372829 204.1179042938653 431.20738411561365Q205.7934904835284 432.4042313939444 209.7539669318229 433.18762233976094Q215.28122527175043 434.3191870392737 219.56811461413517 435.5160343176044Q223.8550039565199 436.7128815959352 226.44454624963558 438.3667069259923Q229.03408854275125 440.0205322560493 230.57910957477822 442.610074549165Q232.1241306068052 445.19961684228065 232.1241306068052 449.2471367289992Z M286.7438882179001 439.41122818708095Q286.7438882179001 450.85744033984423 280.38971721294405 457.3639373620424Q274.035546207988 463.8704343842406 262.8069426512848 463.8704343842406Q251.79594769064178 463.8704343842406 245.52882012410976 457.34217650243636Q239.26169255757776 450.8139186206322 239.26169255757776 439.41122818708095Q239.26169255757776 428.0520594727417 245.52882012410976 421.5455624505435Q251.79594769064178 415.03906542834534 263.068072966557 415.03906542834534Q274.60132855774435 415.03906542834534 280.67260838782227 421.3279538544833Q286.7438882179001 427.61684228062137 286.7438882179001 439.41122818708095ZM273.94850276956396 439.41122818708095Q273.94850276956396 431.01153637915957 271.20663445920616 427.22514680771314Q268.4647661488484 423.4387572362667 263.2421598434051 423.4387572362667Q252.100599725126 423.4387572362667 252.100599725126 439.41122818708095Q252.100599725126 447.28865936445794 254.82070717587771 451.40146182999456Q257.54081462662947 455.51426429553123 262.6763774936487 455.51426429553123Q273.94850276956396 455.51426429553123 273.94850276956396 439.41122818708095Z M326.9579567698138 463.0V436.58231643829913Q326.9579567698138 424.1786264628712 318.55826496189246 424.1786264628712Q314.1190496022656 424.1786264628712 311.3989421515139 427.98677689392366Q308.67883470076214 431.7949273249761 308.67883470076214 437.75740285702386V463.0H296.4492316021823V426.44175586189664Q296.4492316021823 422.6553662904502 296.34042730415223 420.23991087418267Q296.23162300612216 417.8244554579151 296.1010578484861 415.9094998125859H307.7648785973096Q307.89544375494563 416.7364124776144 308.11305235100576 420.32695431260674Q308.3306609470659 423.917496147599 308.3306609470659 425.26666944317185H308.50474782391404Q310.9854858189996 419.86997626088043 314.728353671234 417.4327599850069Q318.4712215234684 414.9955437091333 323.6503061096997 414.9955437091333Q331.1360418141685 414.9955437091333 335.14003998167505 419.60884594560827Q339.1440381491816 424.22214818208323 339.1440381491816 433.1005789013369V463.0Z M361.77533213943605 463.8704343842406Q354.9424222231477 463.8704343842406 351.1125109324893 460.1493273916122Q347.2825996418308 456.4282203989838 347.2825996418308 449.6823539211195Q347.2825996418308 442.3707050934988 352.0482278955478 438.5843155220524Q356.8138561492649 434.797925950606 365.8663737453667 434.62383907375784L376.00693432176917 434.44975219690974V432.05605764024824Q376.00693432176917 427.4427554037733 374.3966307109241 425.2013868643538Q372.7863271000791 422.9600183249344 369.13050268626876 422.9600183249344Q365.7358085877306 422.9600183249344 364.14726583649156 424.50503935696145Q362.55872308525255 426.0500603889884 362.1670276123443 429.61884136437465L349.41516388322015 429.0095372954063Q350.59025030194493 422.1331056599059 355.7040523093582 418.5860855441256Q360.81785431677145 415.03906542834534 369.6527633168131 415.03906542834534Q378.5747157552788 415.03906542834534 383.4056265878139 419.4347590687602Q388.23653742034895 423.83045270917495 388.23653742034895 431.9254924826121V449.0730498521511Q388.23653742034895 453.0335263004456 389.1287326641955 454.5350256132606Q390.0209279080421 456.0365249260756 392.10997043021945 456.0365249260756Q393.50266544500437 456.0365249260756 394.80831702136516 455.7753946108034V462.3906959310316Q393.7202740410645 462.65182624630376 392.8498396568239 462.86943484236394Q391.97940527258334 463.0870434384241 391.1089708883428 463.21760859606013Q390.2385365041022 463.34817375369624 389.25929782183164 463.43521719212026Q388.280059139561 463.52226063054434 386.97440756320015 463.52226063054434Q382.36110532672524 463.52226063054434 380.1632585065178 461.2591312315189Q377.9654116863104 458.99600183249345 377.53019449419014 454.6003081920786H377.269064178918Q372.13350131189867 463.8704343842406 361.77533213943605 463.8704343842406ZM376.00693432176917 441.19561867477404 369.73980675523717 441.2826621131981Q365.47467827245845 441.4567489900462 363.6902877847653 442.2183790762567Q361.90589729707216 442.9800091624672 360.97018033401355 444.5467910541002Q360.03446337095494 446.1135729457332 360.03446337095494 448.7248760984549Q360.03446337095494 452.076048477781 361.57948440298196 453.70811294823204Q363.1245054350089 455.3401774186831 365.6922868685186 455.3401774186831Q368.5647203365124 455.3401774186831 370.93665403356795 453.77339552705007Q373.30858773062346 452.2066136354171 374.65776102619634 449.4429844654534Q376.00693432176917 446.6793552954896 376.00693432176917 443.5893132314356Z M400.4661405189288 463.0V398.4137686893507H412.69574361750864V463.0Z M480.0673649577277 463.0H467.0543709133314L444.3795552038649 401.6778976302528H457.78424472116944L470.4055432926575 441.065053517138Q471.62415143059434 444.9384865270085 473.6261505143476 452.6418308275374L474.62715005622425 448.85544125609096Q475.9328016325851 443.63283495064763 476.7597142976136 441.065053517138L489.3374911498896 401.6778976302528H502.61161550955813Z M509.44452542584645 463.0V415.9094998125859H521.6741285244262V463.0ZM509.44452542584645 407.42276456624046V398.4137686893507H521.6741285244262V407.42276456624046Z M534.2083836574902 463.0V426.964016492441Q534.2083836574902 423.0905834825705 534.0995793594602 420.50104118945484Q533.9907750614301 417.9114988963392 533.860209903794 415.9094998125859H545.5240306526175Q545.6545958102536 416.6928907584024 545.8722044063137 420.67512806630293Q546.0898130023738 424.6573653742035 546.0898130023738 425.96301695056434H546.263899879222Q548.0482903669151 421.0015409603932 549.4409853817 418.97778101703386Q550.8336803964849 416.95402107367454 552.748636041814 415.9747823914039Q554.6635916871434 414.9955437091333 557.5360251551372 414.9955437091333Q559.8861979925866 414.9955437091333 561.3224147265836 415.64836949731375V425.87597351214026Q558.3629378201657 425.22314772395987 556.0998084211402 425.22314772395987Q551.5300279038773 425.22314772395987 548.9840073299737 428.9224938569822Q546.43798675607 432.62183999000456 546.43798675607 439.88996709841325V463.0Z M580.9507100912082 463.7833909458165Q575.5540169089167 463.7833909458165 572.6380617217108 460.8456748990046Q569.722106534505 457.90795885219273 569.722106534505 451.94548332014494V424.1786264628712H563.7596310024571V415.9094998125859H570.3314106034734L574.1613218941318 404.8549831327308H581.8211444754487V415.9094998125859H590.7430969139144V424.1786264628712H581.8211444754487V448.6378326600308Q581.8211444754487 452.076048477781 583.1267960518096 453.70811294823204Q584.4324476281704 455.3401774186831 587.1743159385281 455.3401774186831Q588.6105326725251 455.3401774186831 591.2653575444588 454.7308733497147V462.30365249260757Q586.7390987464079 463.7833909458165 580.9507100912082 463.7833909458165Z M610.1102619632668 415.9094998125859V442.3271833742868Q610.1102619632668 454.7308733497147 618.4664320519761 454.7308733497147Q622.9056474116029 454.7308733497147 625.6257548623546 450.9227229186623Q628.3458623131064 447.11457248760985 628.3458623131064 441.15209695556206V415.9094998125859H640.5754654116862V452.4677439506893Q640.5754654116862 458.4737412019491 640.9236391653825 463.0H629.259818416559Q628.7375577860147 456.732872433468 628.7375577860147 453.642830369414H628.5199491899546Q626.082732914081 458.99600183249345 622.3181042022406 461.433218108367Q618.5534754904002 463.8704343842406 613.3743909041689 463.8704343842406Q605.8886551997001 463.8704343842406 601.8846570321936 459.2788930073716Q597.880658864687 454.6873516305027 597.880658864687 445.808920911249V415.9094998125859Z M663.9031069093332 463.8704343842406Q657.0701969930449 463.8704343842406 653.2402857023865 460.1493273916122Q649.410374411728 456.4282203989838 649.410374411728 449.6823539211195Q649.410374411728 442.3707050934988 654.1760026654449 438.5843155220524Q658.941630919162 434.797925950606 667.9941485152638 434.62383907375784L678.1347090916663 434.44975219690974V432.05605764024824Q678.1347090916663 427.4427554037733 676.5244054808213 425.2013868643538Q674.9141018699762 422.9600183249344 671.258277456166 422.9600183249344Q667.8635833576277 422.9600183249344 666.2750406063888 424.50503935696145Q664.6864978551497 426.0500603889884 664.2948023822414 429.61884136437465L651.5429386531173 429.0095372954063Q652.718025071842 422.1331056599059 657.8318270792553 418.5860855441256Q662.9456290866685 415.03906542834534 671.7805380867103 415.03906542834534Q680.7024905251759 415.03906542834534 685.533401357711 419.4347590687602Q690.3643121902461 423.83045270917495 690.3643121902461 431.9254924826121V449.0730498521511Q690.3643121902461 453.0335263004456 691.2565074340927 454.5350256132606Q692.1487026779392 456.0365249260756 694.2377452001166 456.0365249260756Q695.6304402149015 456.0365249260756 696.9360917912624 455.7753946108034V462.3906959310316Q695.8480488109616 462.65182624630376 694.9776144267211 462.86943484236394Q694.1071800424805 463.0870434384241 693.2367456582399 463.21760859606013Q692.3663112739994 463.34817375369624 691.3870725917288 463.43521719212026Q690.4078339094582 463.52226063054434 689.1021823330973 463.52226063054434Q684.4888800966223 463.52226063054434 682.291033276415 461.2591312315189Q680.0931864562076 458.99600183249345 679.6579692640872 454.6003081920786H679.3968389488151Q674.2612760817958 463.8704343842406 663.9031069093332 463.8704343842406ZM678.1347090916663 441.19561867477404 671.8675815251343 441.2826621131981Q667.6024530423556 441.4567489900462 665.8180625546624 442.2183790762567Q664.0336720669693 442.9800091624672 663.0979551039106 444.5467910541002Q662.1622381408521 446.1135729457332 662.1622381408521 448.7248760984549Q662.1622381408521 452.076048477781 663.707259172879 453.70811294823204Q665.252280204906 455.3401774186831 667.8200616384157 455.3401774186831Q670.6924951064095 455.3401774186831 673.064428803465 453.77339552705007Q675.4363625005205 452.2066136354171 676.7855357960934 449.4429844654534Q678.1347090916663 446.6793552954896 678.1347090916663 443.5893132314356Z M702.5939152888259 463.0V398.4137686893507H714.8235183874057V463.0Z M801.8669568114613 445.3301819999167Q801.8669568114613 454.33917787680645 795.186372912415 459.1048061305235Q788.5057890133687 463.8704343842406 775.5798384073964 463.8704343842406Q763.7854525009369 463.8704343842406 757.0831077422847 459.69234933988594Q750.3807629836324 455.51426429553123 748.4658073383031 447.0275290491858L760.869497313731 444.98200824622046Q762.1316271708798 449.8564407979676 765.7874515846902 452.054287618175Q769.4432759985006 454.2521344383824 775.9280121610927 454.2521344383824Q789.3762233976092 454.2521344383824 789.3762233976092 446.0700512265212Q789.3762233976092 443.4587480737995 787.8312023655823 441.7614010245304Q786.2861813335553 440.06405397526134 783.4790304443795 438.9324892757486Q780.6718795552038 437.8009245762359 772.7074049394026 436.19062096539085Q765.8309733039023 434.58031735454585 763.1326267127565 433.6010786722752Q760.4342801216108 432.62183999000456 758.2581941610094 431.2944275540377Q756.082108200408 429.9670151180709 754.5588480279871 428.09558119195367Q753.0355878555661 426.2241472658365 752.1869143309316 423.6998875515389Q751.338240806297 421.1756278372413 751.338240806297 417.9114988963392Q751.338240806297 409.5988505268419 757.5836075132229 405.18139602682106Q763.8289742201489 400.76394152680024 775.7539252842446 400.76394152680024Q787.1566157177958 400.76394152680024 792.8797217941775 404.33272250218647Q798.6028278705592 407.90150347757276 800.2566532006163 416.12710840864605L787.8094415059762 417.8244554579151Q786.8519636833116 413.8639790096206 783.9142476364998 411.86197992586733Q780.976531589688 409.85998084211406 775.4927949689724 409.85998084211406Q763.8289742201489 409.85998084211406 763.8289742201489 417.1716296697347Q763.8289742201489 419.5653242263962 765.0693432176918 421.0885843988172Q766.3097122152345 422.6118445712382 768.7469284911081 423.6998875515389Q771.1841447669816 424.7879305318396 778.6263587522384 426.35471242347256Q787.46126775228 428.2261463495898 791.2694181833325 429.8146891008288Q795.077568614385 431.4032318520678 797.2971762941984 433.51403523385113Q799.5167839740118 435.62483861563453 800.6918703927365 438.56255466244636Q801.8669568114613 441.50027070925825 801.8669568114613 445.3301819999167Z M823.1055557869308 415.9094998125859V442.3271833742868Q823.1055557869308 454.7308733497147 831.4617258756401 454.7308733497147Q835.9009412352669 454.7308733497147 838.6210486860186 450.9227229186623Q841.3411561367705 447.11457248760985 841.3411561367705 441.15209695556206V415.9094998125859H853.5707592353502V452.4677439506893Q853.5707592353502 458.4737412019491 853.9189329890465 463.0H842.2551122402231Q841.7328516096787 456.732872433468 841.7328516096787 453.642830369414H841.5152430136186Q839.0780267377451 458.99600183249345 835.3133980259047 461.433218108367Q831.5487693140642 463.8704343842406 826.3696847278329 463.8704343842406Q818.8839490233642 463.8704343842406 814.8799508558576 459.2788930073716Q810.875952688351 454.6873516305027 810.875952688351 445.808920911249V415.9094998125859Z M910.5842114031068 439.2371413102328Q910.5842114031068 451.0315272166923 905.8621048686018 457.4509808004665Q901.1399983340967 463.8704343842406 892.5226979301152 463.8704343842406Q887.5612219399441 463.8704343842406 883.8836366665278 461.7161092832452Q880.2060513931114 459.5617841822498 878.24757402857 455.51426429553123H877.986443713298Q878.24757402857 456.819915871892 878.24757402857 463.43521719212026V481.49673066511184H866.0179709299903V426.74640789638084Q866.0179709299903 420.08758485694057 865.6697971762941 415.9094998125859H877.5512265211777Q877.7688351172378 416.6928907584024 877.9211611344799 418.9995418766399Q878.073487151722 421.30619299487734 878.073487151722 423.5693223939028H878.24757402857Q882.3821373537128 414.9085002707093 893.3060888759318 414.9085002707093Q901.531693807005 414.9085002707093 906.0579526050559 421.2409104160593Q910.5842114031068 427.57332056140933 910.5842114031068 439.2371413102328ZM897.8323476739827 439.2371413102328Q897.8323476739827 423.3952355170547 888.1270042897004 423.3952355170547Q883.2525717379533 423.3952355170547 880.6630294448377 427.6603639998334Q878.073487151722 431.9254924826121 878.073487151722 439.58531506392904Q878.073487151722 447.2016159260339 880.6630294448377 451.3579401107826Q883.2525717379533 455.51426429553123 888.0399608512764 455.51426429553123Q897.8323476739827 455.51426429553123 897.8323476739827 439.2371413102328Z M965.0298821373536 439.2371413102328Q965.0298821373536 451.0315272166923 960.3077756028486 457.4509808004665Q955.5856690683436 463.8704343842406 946.9683686643621 463.8704343842406Q942.0068926741909 463.8704343842406 938.3293074007745 461.7161092832452Q934.6517221273582 459.5617841822498 932.6932447628169 455.51426429553123H932.4321144475448Q932.6932447628169 456.819915871892 932.6932447628169 463.43521719212026V481.49673066511184H920.4636416642371V426.74640789638084Q920.4636416642371 420.08758485694057 920.1154679105409 415.9094998125859H931.9968972554245Q932.2145058514847 416.6928907584024 932.3668318687268 418.9995418766399Q932.5191578859689 421.30619299487734 932.5191578859689 423.5693223939028H932.6932447628169Q936.8278080879596 414.9085002707093 947.7517596101786 414.9085002707093Q955.9773645412519 414.9085002707093 960.5036233393027 421.2409104160593Q965.0298821373536 427.57332056140933 965.0298821373536 439.2371413102328ZM952.2780184082295 439.2371413102328Q952.2780184082295 423.3952355170547 942.5726750239472 423.3952355170547Q937.6982424722001 423.3952355170547 935.1087001790845 427.6603639998334Q932.5191578859689 431.9254924826121 932.5191578859689 439.58531506392904Q932.5191578859689 447.2016159260339 935.1087001790845 451.3579401107826Q937.6982424722001 455.51426429553123 942.4856315855233 455.51426429553123Q952.2780184082295 455.51426429553123 952.2780184082295 439.2371413102328Z M1019.6496397484486 439.41122818708095Q1019.6496397484486 450.85744033984423 1013.2954687434926 457.3639373620424Q1006.9412977385365 463.8704343842406 995.7126941818333 463.8704343842406Q984.7016992211902 463.8704343842406 978.4345716546582 457.34217650243636Q972.1674440881262 450.8139186206322 972.1674440881262 439.41122818708095Q972.1674440881262 428.0520594727417 978.4345716546582 421.5455624505435Q984.7016992211902 415.03906542834534 995.9738244971054 415.03906542834534Q1007.5070800882928 415.03906542834534 1013.5783599183708 421.3279538544833Q1019.6496397484486 427.61684228062137 1019.6496397484486 439.41122818708095ZM1006.8542543001124 439.41122818708095Q1006.8542543001124 431.01153637915957 1004.1123859897547 427.22514680771314Q1001.3705176793969 423.4387572362667 996.1479113739535 423.4387572362667Q985.0063512556744 423.4387572362667 985.0063512556744 439.41122818708095Q985.0063512556744 447.28865936445794 987.7264587064262 451.40146182999456Q990.4465661571779 455.51426429553123 995.5821290241972 455.51426429553123Q1006.8542543001124 455.51426429553123 1006.8542543001124 439.41122818708095Z M1029.354983132731 463.0V426.964016492441Q1029.354983132731 423.0905834825705 1029.246178834701 420.50104118945484Q1029.1373745366707 417.9114988963392 1029.0068093790346 415.9094998125859H1040.670630127858Q1040.801195285494 416.6928907584024 1041.0188038815543 420.67512806630293Q1041.2364124776145 424.6573653742035 1041.2364124776145 425.96301695056434H1041.4104993544624Q1043.1948898421556 421.0015409603932 1044.5875848569406 418.97778101703386Q1045.9802798717255 416.95402107367454 1047.8952355170547 415.9747823914039Q1049.810191162384 414.9955437091333 1052.6826246303776 414.9955437091333Q1055.0327974678273 414.9955437091333 1056.4690142018242 415.64836949731375V425.87597351214026Q1053.5095372954063 425.22314772395987 1051.2464078963808 425.22314772395987Q1046.676627379118 425.22314772395987 1044.1306068052143 428.9224938569822Q1041.5845862313106 432.62183999000456 1041.5845862313106 439.88996709841325V463.0Z M1076.0973095664488 463.7833909458165Q1070.7006163841572 463.7833909458165 1067.7846611969514 460.8456748990046Q1064.8687060097457 457.90795885219273 1064.8687060097457 451.94548332014494V424.1786264628712H1058.9062304776978V415.9094998125859H1065.4780100787139L1069.3079213693725 404.8549831327308H1076.9677439506893V415.9094998125859H1085.889696389155V424.1786264628712H1076.9677439506893V448.6378326600308Q1076.9677439506893 452.076048477781 1078.27339552705 453.70811294823204Q1079.5790471034109 455.3401774186831 1082.3209154137687 455.3401774186831Q1083.7571321477656 455.3401774186831 1086.4119570196992 454.7308733497147V462.30365249260757Q1081.8856982216485 463.7833909458165 1076.0973095664488 463.7833909458165Z" fill="#082b67" fill-rule="nonzero"/>
  <rect x="145" y="514" width="350" height="10" rx="5" fill="#b8c5d2"/>
  <rect x="635" y="514" width="350" height="10" rx="5" fill="#b8c5d2"/>
  <circle cx="545" cy="519.0" r="8" fill="#079996"/><circle cx="585" cy="519.0" r="8" fill="#079996"/><circle cx="625" cy="519.0" r="8" fill="#079996"/>
</svg>
